<?xml version="1.0" encoding="utf-8"?>
<!-- Generator: Adobe Illustrator 14.0.0, SVG Export Plug-In . SVG Version: 6.00 Build 43363)  -->
<!DOCTYPE svg PUBLIC "-//W3C//DTD SVG 1.1//EN" "http://www.w3.org/Graphics/SVG/1.1/DTD/svg11.dtd">
<svg version="1.1" id="Layer_1" xmlns="http://www.w3.org/2000/svg" xmlns:xlink="http://www.w3.org/1999/xlink" x="0px" y="0px"
	 width="800px" height="600px" viewBox="0 0 800 600" enable-background="new 0 0 800 600" xml:space="preserve">
<g transform="translate(0,0)">
	<path fill="#FFFFFF" d="M462.75,187.5c-33.047,0-95.156,29.074-135.117,61.629c-75.234,11.672-164.883,40.793-164.883,69.621
		c0,33.984,122.813,67.852,201.68,74.063c28.828,25.547,82.852,38.438,98.32,38.438c-14.648-14.648-29.297-29.414-26.016-44.063
		c39.844-9.609,81.328-28.125,117.773-44.414c24.609,28.008,62.344,50.977,76.992,50.977c-18.75-37.5-18.75-56.25-18.75-75
		s18.75-56.309,37.5-75c-29.414,0-70.313,23.027-95.625,50.977c-39.258-17.344-84.258-37.676-127.031-46.465
		C433.336,228.563,447.984,202.242,462.75,187.5z M256.5,281.25c10.355,0,18.75,8.395,18.75,18.75s-8.395,18.75-18.75,18.75
		s-18.75-8.395-18.75-18.75S246.145,281.25,256.5,281.25z"/>
</g>
</svg>
